<svg width="62" height="70" viewBox="0 0 62 70" fill="none" xmlns="http://www.w3.org/2000/svg">
<g filter="url(#filter0_d_4104_27161)">
<path d="M47 36C47 40.9706 39.8366 45 31 45C22.1634 45 15 40.9706 15 36C15 31.0294 22.1634 27 31 27C39.8366 27 47 31.0294 47 36Z" fill="#F6D2A8"/>
</g>
<path fill-rule="evenodd" clip-rule="evenodd" d="M14.6006 14.563C15.1915 6.3575 22.0748 0 30.3682 0H30.7324C39.0257 0 45.9092 6.3575 46.5 14.563C46.7814 18.4692 45.8994 22.5223 43.4198 25.7522C40.4701 29.5941 37.4666 32.2324 32.77 35.3343C31.4263 36.2219 29.6743 36.2219 28.3306 35.3343C23.634 32.2324 20.6304 29.5941 17.6809 25.7522C15.2011 22.5223 14.3193 18.4692 14.6006 14.563Z" fill="#FF9521"/>
<path d="M23.5 24.3333H33.5" stroke="white" stroke-width="2" stroke-linecap="round" stroke-linejoin="round"/>
<path d="M24.3333 13.5H32.6667" stroke="white" stroke-width="2" stroke-linecap="round" stroke-linejoin="round"/>
<path d="M32.6667 24.3334V9.33341C32.6667 8.89139 32.4911 8.46746 32.1785 8.1549C31.8659 7.84234 31.442 7.66675 31 7.66675H26C25.558 7.66675 25.134 7.84234 24.8215 8.1549C24.5089 8.46746 24.3333 8.89139 24.3333 9.33341V24.3334" stroke="white" stroke-width="2" stroke-linecap="round" stroke-linejoin="round"/>
<path d="M32.6667 16.8334H34.3333C34.7754 16.8334 35.1993 17.009 35.5118 17.3216C35.8244 17.6341 36 18.0581 36 18.5001V20.1667C36 20.6088 36.1756 21.0327 36.4882 21.3453C36.8007 21.6578 37.2246 21.8334 37.6667 21.8334C38.1087 21.8334 38.5326 21.6578 38.8452 21.3453C39.1577 21.0327 39.3333 20.6088 39.3333 20.1667V14.1917C39.3335 13.9718 39.2902 13.754 39.2058 13.5509C39.1214 13.3478 38.9976 13.1635 38.8417 13.0084L36 10.1667" stroke="white" stroke-width="2" stroke-linecap="round" stroke-linejoin="round"/>
<defs>
<filter id="filter0_d_4104_27161" x="0" y="22" width="62" height="48" filterUnits="userSpaceOnUse" color-interpolation-filters="sRGB">
<feFlood flood-opacity="0" result="BackgroundImageFix"/>
<feColorMatrix in="SourceAlpha" type="matrix" values="0 0 0 0 0 0 0 0 0 0 0 0 0 0 0 0 0 0 127 0" result="hardAlpha"/>
<feOffset dy="10"/>
<feGaussianBlur stdDeviation="7.5"/>
<feComposite in2="hardAlpha" operator="out"/>
<feColorMatrix type="matrix" values="0 0 0 0 0 0 0 0 0 0 0 0 0 0 0 0 0 0 0.05 0"/>
<feBlend mode="normal" in2="BackgroundImageFix" result="effect1_dropShadow_4104_27161"/>
<feBlend mode="normal" in="SourceGraphic" in2="effect1_dropShadow_4104_27161" result="shape"/>
</filter>
</defs>
</svg>
