<svg width="32" height="45" viewBox="0 0 32 45" fill="none" xmlns="http://www.w3.org/2000/svg">
<path d="M32 36C32 40.9706 24.9358 45 16.2217 45C7.50764 45 0.443474 40.9706 0.443474 36C0.443474 31.0294 7.50764 27 16.2217 27C24.9358 27 32 31.0294 32 36Z" fill="#F6D2A8"/>
<path fill-rule="evenodd" clip-rule="evenodd" d="M0.0495769 14.563C0.63227 6.3575 7.42021 0 15.5986 0H15.9579C24.1362 0 30.9243 6.3575 31.5069 14.563C31.7844 18.4692 30.9146 22.5223 28.4694 25.7522C25.5606 29.5941 22.5987 32.2324 17.9672 35.3343C16.6422 36.2219 14.9144 36.2219 13.5893 35.3343C8.95783 32.2324 5.9958 29.5941 3.08717 25.7522C0.641788 22.5223 -0.227803 18.4692 0.0495769 14.563Z" fill="#FF9521"/>
<path d="M8.5 24.3333H18.5" stroke="white" stroke-width="2" stroke-linecap="round" stroke-linejoin="round"/>
<path d="M9.33334 13.5H17.6667" stroke="white" stroke-width="2" stroke-linecap="round" stroke-linejoin="round"/>
<path d="M17.6667 24.3334V9.33341C17.6667 8.89139 17.4911 8.46746 17.1785 8.1549C16.866 7.84234 16.442 7.66675 16 7.66675H11C10.558 7.66675 10.1341 7.84234 9.82149 8.1549C9.50893 8.46746 9.33334 8.89139 9.33334 9.33341V24.3334" stroke="white" stroke-width="2" stroke-linecap="round" stroke-linejoin="round"/>
<path d="M17.6667 16.8334H19.3333C19.7754 16.8334 20.1993 17.009 20.5118 17.3216C20.8244 17.6341 21 18.0581 21 18.5001V20.1667C21 20.6088 21.1756 21.0327 21.4882 21.3453C21.8007 21.6578 22.2246 21.8334 22.6667 21.8334C23.1087 21.8334 23.5326 21.6578 23.8452 21.3453C24.1577 21.0327 24.3333 20.6088 24.3333 20.1667V14.1917C24.3335 13.9718 24.2902 13.754 24.2058 13.5509C24.1214 13.3478 23.9976 13.1635 23.8417 13.0084L21 10.1667" stroke="white" stroke-width="2" stroke-linecap="round" stroke-linejoin="round"/>
</svg>
