<svg width="200" height="152" viewBox="0 0 200 152" fill="none" xmlns="http://www.w3.org/2000/svg">
<g clip-path="url(#clip0_4270_3427)">
<path d="M86.4747 55.4948C89.2869 51.8474 92.177 48.2056 94.9887 44.5578C96.3331 42.8135 97.6778 41.0694 99.0185 39.3222C99.5568 38.6206 100.449 38.502 101.01 39.1779C102.401 40.8541 103.744 42.5716 105.084 44.2892C107.287 47.1112 109.479 49.9416 111.664 52.7774C114.162 56.0193 116.638 59.2782 119.142 62.5155C120.475 64.2391 121.843 65.936 123.204 67.6382C123.925 68.5404 123.665 69.3896 122.543 69.6371C118.289 70.5755 114.032 71.4987 109.776 72.4237C107.104 73.0045 104.431 73.5841 101.756 74.1504C101.283 74.2504 100.796 74.2827 100.245 74.2549C100.174 71.318 100.173 68.4726 100.174 65.5454C100.174 61.3883 100.174 57.313 100.174 53.1559C100.175 52.2599 100.175 51.4458 100.175 50.6317C100.175 48.6837 100.217 46.734 100.142 44.7889C100.125 44.3487 99.7 43.9243 99.4629 43.4927C99.1211 43.7107 98.7587 43.9035 98.4455 44.1569C98.2744 44.2953 98.1754 44.5302 98.063 44.7323C97.6126 45.5419 97.0432 46.1889 96.0746 46.3956C95.8577 46.4419 95.5975 46.6308 95.4977 46.8259C94.7577 48.2729 94.0355 49.721 92.2888 50.2094C92.2342 50.2247 92.1723 50.2511 92.1367 50.2922C91.2356 51.3318 90.3329 52.3702 89.4403 53.4171C88.6464 54.3483 87.8838 55.419 86.4747 55.4948Z" fill="#EA560D"/>
<path d="M155.275 23.3836L157.417 23.1228L162.962 22.6828C164.388 22.5823 165.814 22.4613 167.238 22.3304C168.31 22.2319 169.379 22.0966 170.45 21.9898C171.695 21.8656 172.941 21.7596 174.185 21.6365C175.286 21.5276 176.387 21.4218 177.484 21.2808C177.814 21.2383 178.447 21.2032 178.447 21.2032L179.494 21.116C179.439 21.3801 179.213 21.7254 179.058 21.9013C178.699 22.3074 178.321 22.6479 177.934 23.0319C175.85 25.1004 173.788 27.1899 171.7 29.2538C168.913 32.009 165.575 33.7278 161.709 34.3485C159.511 34.7014 157.307 34.5829 155.099 34.2338C153.347 33.9567 151.564 33.876 149.798 33.6759C147.982 33.4701 146.172 33.2137 144.356 33.0018C143.132 32.859 141.902 32.7695 140.678 32.6304C138.831 32.4204 136.988 32.1801 135.141 31.9677C133.917 31.827 132.689 31.7237 131.465 31.5839C129.533 31.3634 127.604 31.1176 125.673 30.8991C123.992 30.7091 122.309 30.5432 120.627 30.3646C120.058 30.3042 119.484 30.2678 118.925 30.1554C118.761 30.1225 118.6 29.8856 118.516 29.7057C118.449 29.5622 118.404 29.3174 118.412 29.1435C118.446 28.4261 118.325 27.5545 118.69 27.0999C118.983 26.7344 120.681 26.7003 120.681 26.7003L122.632 26.6116L124.583 26.5228C124.583 26.5228 126.84 26.2887 127.969 26.1769C130.354 25.9409 132.739 25.7125 135.123 25.4744C137.396 25.2474 139.669 25.0046 141.943 24.7825C144.421 24.5405 146.9 24.3173 149.379 24.0799C150.508 23.9717 151.638 23.8612 152.765 23.7289C153.577 23.6336 155.275 23.3836 155.275 23.3836Z" fill="#EA560D"/>
<path d="M66.9878 25.4789C68.4895 25.5961 71.3092 25.8933 71.3092 25.8933C71.3092 25.8933 73.5571 26.0688 74.6731 26.1775C75.8754 26.2946 77.0809 26.3859 78.2792 26.5346C79.3615 26.669 80.4361 26.8657 81.6056 27.0493C81.6056 27.9535 81.6056 29.0092 81.6056 30.1546C79.9261 30.3396 78.2248 30.5173 76.5259 30.7168C74.7078 30.9303 72.8929 31.1715 71.075 31.3866C69.9075 31.5246 68.7362 31.6294 67.5682 31.763C65.6358 31.984 63.7056 32.2246 61.7727 32.4412C60.0642 32.6327 58.3523 32.7938 56.6437 32.9846C54.6816 33.2037 52.7228 33.453 50.7601 33.6663C48.9643 33.8616 47.1664 34.0383 45.3674 34.2009C43.8798 34.3353 42.3879 34.5494 40.9004 34.5316C37.009 34.4849 33.3943 33.3335 30.4562 30.8065C27.231 28.0326 24.2748 24.9453 21.2244 21.971C21.0533 21.8041 20.6523 21.3978 20.5934 21.116C20.8876 21.0668 21.815 21.2032 21.815 21.2032L23.2152 21.2806L28.679 21.7067L32.108 22.0391L35.7093 22.4002L39.1596 22.6855C40.4333 22.8087 41.7086 22.9158 42.982 23.0416C44.053 23.1473 45.1216 23.2776 46.1927 23.383C47.4654 23.5083 49.9961 23.7912 49.9961 23.7912L53.4306 24.1337L56.9482 24.4861C56.9482 24.4861 59.3668 24.678 60.5698 24.7829C61.8157 24.8916 63.0614 25.0057 64.3049 25.1397C65.1737 25.2334 66.0385 25.3645 66.9878 25.4789Z" fill="#EA560D"/>
<path d="M128.115 38.7302C124.859 37.5659 121.675 36.4045 118.484 35.2614C117.366 34.861 117.298 34.7585 117.633 33.6885C117.904 32.8271 118.156 31.9599 118.447 30.9925C120.022 31.1542 121.591 31.2985 123.155 31.4802C124.802 31.6715 126.444 31.9098 128.091 32.1074C130.138 32.3531 132.226 32.4081 134.224 32.8623C136.043 33.2758 137.884 33.1494 139.694 33.4869C141.378 33.8008 143.09 33.9662 144.793 34.1747C146.441 34.3766 148.095 34.5382 149.744 34.7393C151.475 34.9503 153.201 35.1927 154.931 35.4112C156.408 35.5977 157.887 35.769 159.365 35.9483C161.013 36.1482 162.661 36.3496 164.556 36.5806C164.331 36.9567 164.225 37.3437 163.973 37.5208C161.542 39.2245 159.133 40.9671 156.626 42.5524C153.638 44.4415 150.317 45.4572 146.788 44.9641C144.644 44.6644 142.551 43.8722 140.485 43.1591C136.367 41.738 132.282 40.2189 128.115 38.7302Z" fill="#E9560E"/>
<path d="M62.1281 33.3317C64.1505 33.1567 66.0959 33.0064 68.0352 32.7998C69.919 32.5991 71.8008 32.3697 73.6758 32.0998C75.8463 31.7874 78.0068 31.4066 80.1755 31.0807C80.6022 31.0166 81.0566 31.0113 81.4779 31.0889C81.6839 31.1269 81.9325 31.3864 82.0078 31.5999C82.2818 32.3776 82.4506 33.1931 82.7368 33.9656C82.9723 34.6013 82.8212 34.8791 82.1725 35.1026C79.8299 35.9098 77.5116 36.7867 75.1787 37.6222C68.8501 39.8886 62.54 42.2093 56.1801 44.3844C52.7387 45.5613 49.2994 45.2172 45.9632 43.7531C42.3936 42.1867 39.4522 39.6481 36.2441 37.523C36.0243 37.3773 35.9509 37.0105 35.8094 36.7465C36.0657 36.6577 36.3165 36.5163 36.5792 36.4884C38.4032 36.2951 40.2346 36.1647 42.0536 35.9346C43.3097 35.7758 44.5439 35.4484 45.7985 35.2711C47.3474 35.0523 48.9088 34.9233 50.462 34.7333C52.7315 34.4556 54.9974 34.1494 57.2669 33.8721C58.859 33.6776 60.4545 33.5109 62.1281 33.3317Z" fill="#E9560D"/>
<path d="M108.314 35.1415C109.346 36.1452 110.343 37.0968 111.341 38.0461C111.381 38.084 111.452 38.0891 111.492 38.1272C112.884 39.4666 112.947 39.372 111.676 40.5814C110.29 41.8993 108.913 43.2252 107.541 44.5577C107.207 44.8819 107.017 44.9441 106.681 44.4918C105.35 42.7001 103.983 40.9348 102.584 39.1955C102.137 38.6397 101.623 38.0702 101.014 37.7279C100.037 37.1778 98.954 37.5593 98.0861 38.6626C96.6004 40.5514 95.1506 42.4686 93.6998 44.3845C93.3607 44.8323 93.0871 45.0181 92.6024 44.5236C90.9549 42.8425 89.2751 41.1933 87.3482 39.2735C88.0338 38.7097 88.6654 38.1435 89.3441 37.6408C91.5471 36.0091 92.8815 33.7653 93.8956 31.2872C94.0223 30.9775 94.1531 30.6695 94.3339 30.2366C93.6212 30.4215 93.0414 30.5719 92.2616 30.7741C93.172 29.6454 93.9623 28.6657 94.8702 27.5401C94.1854 27.5909 93.7131 27.6259 93.1427 27.6681C94.3512 25.8739 95.6786 24.3062 97.4113 23.0681C99.3907 21.6538 101.542 20.8824 103.978 20.9441C105.12 20.9731 105.78 21.8955 105.287 22.8683C105.769 22.7992 106.204 22.7242 106.642 22.6769C107.751 22.557 108.863 22.4604 109.971 22.3333C110.672 22.2529 111.101 22.6087 111.238 23.2212C111.481 24.3041 111.454 25.3775 110.762 26.3512C109.485 25.1882 107.648 25.7797 107.003 27.6052C106.693 28.4833 106.535 29.4435 106.478 30.3769C106.367 32.1943 107.193 33.703 108.314 35.1415ZM104.208 23.2043C102.956 23.4708 101.703 23.7372 100.45 24.0037C101.339 23.9251 102.078 24.1211 102.749 24.7885C103.221 25.2584 103.65 24.7447 103.941 24.3811C104.183 24.078 104.306 23.6799 104.569 23.2626C104.661 23.2177 104.753 23.1728 104.846 23.1279C104.83 23.0903 104.815 23.0527 104.799 23.0151C104.649 23.0747 104.499 23.1343 104.208 23.2043Z" fill="#E9560E"/>
<path d="M39.2692 106.737C39.2673 101.622 39.2673 96.583 39.2673 91.4939C40.5973 91.4939 42.0639 91.4939 43.5915 91.4939C43.6039 91.7308 43.6282 91.9814 43.6283 92.2322C43.6307 96.4187 43.6576 100.606 43.6181 104.792C43.5988 106.827 45.0059 108.182 47.008 108.197C47.472 108.2 47.9359 108.197 48.4669 108.197C48.4669 102.641 48.4669 97.1031 48.4669 91.5048C49.9402 91.5048 51.3493 91.5048 52.8264 91.5048C52.8264 96.9986 52.8264 102.536 52.8264 108.135C54.4748 108.135 56.0584 108.135 57.7099 108.135C57.7099 102.646 57.7099 97.1089 57.7099 91.5079C59.2416 91.5079 60.709 91.5079 62.2402 91.5079C62.2402 98.409 62.2402 105.362 62.2402 112.386C61.3139 112.386 60.3912 112.386 59.4685 112.386C55.1654 112.386 50.8619 112.35 46.5594 112.398C43.4082 112.432 40.2401 110.353 39.431 107.11C39.4047 107.004 39.3256 106.912 39.2692 106.737Z" fill="#223364"/>
<path d="M124.757 38.4015C126.905 39.1942 128.984 39.9821 131.065 40.7621C136.64 42.8516 142.216 44.9376 147.792 47.0249C148.058 47.1246 148.349 47.1846 148.586 47.3317C148.927 47.5438 149.23 47.8188 149.549 48.0669C149.256 48.3075 148.998 48.6192 148.666 48.7773C146.034 50.0319 143.434 51.3715 140.735 52.4633C137.19 53.8974 133.592 53.879 130.276 51.8084C128.076 50.435 126.025 48.8146 123.963 47.233C120.941 44.9155 117.972 42.5282 114.971 40.1842C114.388 39.7293 114.38 39.2741 114.788 38.7082C115.323 37.9674 115.89 37.2388 116.325 36.4405C116.735 35.6877 117.171 35.5346 117.972 35.8548C120.194 36.7427 122.447 37.5525 124.757 38.4015Z" fill="#E9560E"/>
<path d="M79.4651 44.7222C77.9367 45.9396 76.4898 47.1606 74.9757 48.2915C73.2388 49.5888 71.5341 50.9706 69.6516 52.0225C66.2901 53.9008 62.7243 53.8358 59.2359 52.3452C56.5567 51.2003 53.9566 49.869 51.3352 48.5923C51.1031 48.4792 50.8895 48.1743 50.8338 47.9218C50.8086 47.8074 51.1656 47.5353 51.3926 47.4495C57.1994 45.254 63.0096 43.0676 68.8241 40.8927C73.3591 39.1964 77.9048 37.5288 82.4349 35.8196C83.1588 35.5465 83.5499 35.6775 83.9309 36.3732C84.4779 37.3718 85.1621 38.2951 85.9036 39.4275C85.6083 39.7373 85.2762 40.1752 84.8597 40.5074C83.0924 41.9174 81.3001 43.296 79.4651 44.7222Z" fill="#E9560E"/>
<path d="M69.8073 115.352C70.4463 115.352 70.9989 115.356 71.5515 115.352C72.8858 115.343 74.4337 113.869 74.3092 112.386C73.5054 112.386 72.6946 112.363 71.8853 112.39C68.5437 112.498 65.154 109.855 64.7667 106.481C64.5767 104.826 64.614 103.143 64.5776 101.472C64.5511 100.256 64.5724 99.0383 64.5724 97.7743C66.0817 97.7743 67.5486 97.7743 69.11 97.7743C69.11 100.202 69.129 102.634 69.1009 105.065C69.0891 106.093 69.4345 106.96 70.2786 107.483C70.8738 107.852 71.6109 108.047 72.311 108.174C72.9297 108.286 73.5849 108.197 74.2933 108.197C74.2933 104.738 74.2933 101.293 74.2933 97.7874C75.8275 97.7874 77.295 97.7874 78.8448 97.7874C78.8558 97.9882 78.8812 98.2364 78.8813 98.4846C78.8837 103.138 78.9322 107.792 78.8676 112.444C78.8156 116.195 75.7932 119.559 71.7831 119.542C70.0977 119.535 68.4123 119.541 66.7188 119.541C67.0195 118.15 67.3115 116.799 67.6241 115.352C68.2802 115.352 69.0005 115.352 69.8073 115.352Z" fill="#223364"/>
<path d="M86.4747 55.4948C87.9381 55.3943 88.6464 54.3379 89.4403 53.4067C90.3329 52.3597 91.2356 51.3214 92.1367 50.2818C92.1723 50.2407 92.2342 50.2143 92.2888 50.199C94.0355 49.7106 94.7577 48.2624 95.4977 46.8155C95.5974 46.6204 95.8576 46.4314 96.0746 46.3852C97.0432 46.1785 97.6126 45.5314 98.0629 44.7218C98.1753 44.5198 98.2744 44.2848 98.4455 44.1465C98.7587 43.893 99.121 43.7003 99.4629 43.4823C99.7 43.9139 100.125 44.3383 100.142 44.7784C100.217 46.7236 100.175 48.6733 100.175 50.6213C100.175 51.4354 100.245 52.2518 100.175 53.1389C98.9356 52.8738 98.4199 53.0602 97.7917 54.1224C97.6947 54.2864 97.509 54.3967 97.3696 54.537C97.0457 54.8632 96.7246 55.192 96.4033 55.5208C96.2845 55.6424 96.1789 55.861 96.0498 55.875C94.9363 55.9962 94.5399 57.051 93.8248 57.6504C92.5956 58.6805 91.6466 60.0385 90.4665 61.1367C89.9938 61.5766 89.5048 61.9002 89.3553 62.5775C89.319 62.7419 88.9721 62.8148 88.8333 62.9835C88.2019 63.7516 87.5533 64.4973 86.7263 65.0676C86.6664 65.1089 86.6731 65.2366 86.6205 65.3008C86.5131 65.4318 86.3878 65.5483 86.2674 65.6682C85.9219 66.0122 85.5815 66.3616 85.2263 66.6953C85.0429 66.8675 84.8191 66.9971 84.6373 67.1707C84.3832 67.4133 84.137 67.6674 83.9133 67.938C83.6486 68.2585 83.4129 68.6028 83.1621 68.9349C82.7798 69.4412 82.0887 69.8346 82.5425 70.6437C81.289 70.4042 80.0346 70.1696 78.7826 69.9225C78.3662 69.8404 77.955 69.7308 77.5434 69.6261C76.6046 69.3873 76.318 68.6439 76.9064 67.8756C78.5039 65.7896 80.1239 63.7209 81.7317 61.6428C83.3045 59.6099 84.8499 57.5543 86.4747 55.4948Z" fill="url(#paint0_linear_4270_3427)"/>
<path d="M139.268 97.7267C141.153 97.7267 142.951 97.7267 144.801 97.7267C144.801 102.6 144.801 107.438 144.801 112.346C144.579 112.358 144.329 112.384 144.08 112.384C141.814 112.387 139.547 112.408 137.28 112.381C133.772 112.339 130.64 109.795 130.157 106.088C129.842 103.666 130.573 101.663 132.12 99.9638C133.164 98.8158 134.557 98.0523 136.176 97.907C137.175 97.8174 138.179 97.7849 139.268 97.7267ZM137.321 102.09C136.896 102.215 136.414 102.253 136.055 102.483C135.013 103.148 134.409 104.118 134.569 105.388C134.72 106.583 135.369 107.61 136.515 107.92C137.703 108.24 138.992 108.181 140.28 108.292C140.28 106.137 140.28 104.148 140.28 102.09C139.327 102.09 138.405 102.09 137.321 102.09Z" fill="#223364"/>
<path d="M86.5814 52.8852C84.2765 55.7336 81.9804 58.5893 79.6484 61.4153C79.4788 61.6208 78.9909 61.7666 78.7471 61.6774C75.1942 60.3775 71.6545 59.0412 68.1225 57.6854C67.7802 57.554 67.5095 57.2359 67.2056 57.0045C67.4518 56.6981 67.6587 56.3465 67.9508 56.0931C69.381 54.8523 70.8372 53.6415 72.2779 52.4128C74.3083 50.6811 76.3357 48.9458 78.3578 47.2045C78.6868 46.9212 79.4671 46.2369 79.8429 45.9839C81.2943 47.3215 82.186 48.9792 83.5847 50.2516C84.5683 51.1463 85.5814 52.0085 86.5814 52.8852Z" fill="#E9570D"/>
<path d="M84.9625 112.386C83.6624 112.386 82.4473 112.386 81.1925 112.386C81.1925 107.489 81.1925 102.649 81.1925 97.7681C82.6157 97.7681 84.0241 97.7681 85.5024 97.7681C85.5024 99.4816 85.5024 101.182 85.5024 102.921C87.329 102.921 89.0864 102.921 90.9135 102.921C90.9135 101.206 90.9135 99.506 90.9135 97.7669C92.4493 97.7669 93.9159 97.7669 95.4226 97.7669C95.4226 102.625 95.4226 107.465 95.4226 112.345C93.9388 112.345 92.4722 112.345 90.9358 112.345C90.9358 110.629 90.9358 108.929 90.9358 107.19C89.1092 107.19 87.3518 107.19 85.5148 107.19C85.5148 108.74 85.5105 110.272 85.5181 111.804C85.5198 112.143 85.5509 112.471 84.9625 112.386Z" fill="#223364"/>
<path d="M122.865 97.7267C124.75 97.7267 126.548 97.7267 128.396 97.7267C128.396 102.601 128.396 107.439 128.396 112.331C127.012 112.331 125.603 112.331 124.128 112.331C124.128 108.975 124.128 105.59 124.128 102.092C123.033 102.092 121.98 101.965 120.973 102.128C119.994 102.287 118.638 103.561 118.663 105.054C118.703 107.462 118.674 109.871 118.674 112.333C117.176 112.333 115.71 112.333 114.136 112.333C114.136 110.219 114.078 108.079 114.159 105.945C114.203 104.799 114.311 103.598 114.695 102.533C115.645 99.8986 117.563 98.2991 120.385 97.9089C121.176 97.7995 121.981 97.7848 122.865 97.7267Z" fill="#223364"/>
<path d="M161.082 101.392C161.082 105.08 161.082 108.68 161.082 112.386C158.912 112.386 156.772 112.441 154.636 112.362C153.577 112.324 152.497 112.143 151.48 111.845C148.949 111.104 146.903 108.177 146.938 105.627C146.974 103.019 146.946 100.41 146.946 97.7642C148.417 97.7642 149.825 97.7642 151.309 97.7642C151.309 100.105 151.278 102.422 151.317 104.738C151.357 107.076 152.543 107.936 154.548 108.184C155.23 108.268 155.932 108.197 156.692 108.197C156.692 104.712 156.692 101.268 156.692 97.7759C158.166 97.7759 159.574 97.7759 161.082 97.7759C161.082 98.944 161.082 100.124 161.082 101.392Z" fill="#223364"/>
<path d="M82.3735 70.5901C81.8569 69.7491 82.7798 69.4412 83.1621 68.9349C83.4129 68.6028 83.6486 68.2585 83.9134 67.938C84.137 67.6674 84.3832 67.4133 84.6373 67.1707C84.8192 66.9971 85.0429 66.8676 85.2263 66.6953C85.5815 66.3616 85.9219 66.0122 86.2674 65.6682C86.3878 65.5483 86.5131 65.4318 86.6205 65.3008C86.6731 65.2366 86.6664 65.1089 86.7263 65.0676C87.5533 64.4973 88.2019 63.7516 88.8334 62.9836C88.9721 62.8148 89.319 62.7419 89.3553 62.5775C89.5048 61.9002 89.9938 61.5766 90.4665 61.1368C91.6467 60.0385 92.5956 58.6805 93.8248 57.6504C94.5399 57.051 94.9363 55.9962 96.0498 55.875C96.1789 55.861 96.2846 55.6424 96.4033 55.5208C96.7246 55.1921 97.0458 54.8632 97.3696 54.5371C97.509 54.3967 97.6947 54.2864 97.7917 54.1224C98.4199 53.0602 98.9358 52.7919 100.174 53.1389C100.244 57.223 100.226 61.4239 100.174 65.5293C100.098 64.6048 100.024 63.6041 99.9988 62.6495C99.986 62.1756 99.8258 61.723 99.2923 62.1022C98.4975 62.6673 97.7528 63.3208 97.0652 64.0144C96.1555 64.9319 95.3063 65.9112 94.4587 66.8879C93.2598 68.2696 91.4895 69.1046 90.6729 70.8526C90.6157 70.9752 90.4891 71.1456 90.3847 71.153C89.6585 71.2047 89.6768 71.703 89.7043 72.2186C87.6838 71.798 85.6628 71.3795 83.6431 70.955C83.3153 70.8861 82.3735 70.5901 82.3735 70.5901Z" fill="url(#paint1_linear_4270_3427)"/>
<path d="M100.339 97.7267C101.837 97.3398 102.557 98.2967 103.295 99.2126C103.831 99.8773 104.361 100.546 104.958 101.294C105.893 100.201 106.769 99.161 107.668 98.1424C107.83 97.9588 108.09 97.7494 108.308 97.7449C109.928 97.7114 111.549 97.7268 113.368 97.7268C111.392 100.106 109.513 102.369 107.625 104.644C109.557 107.201 111.455 109.712 113.475 112.385C111.598 112.385 109.978 112.407 108.36 112.361C108.128 112.354 107.86 112.057 107.685 111.833C106.793 110.695 105.927 109.536 104.987 108.299C104.045 109.55 103.165 110.746 102.248 111.912C102.077 112.129 101.761 112.358 101.506 112.365C99.9158 112.406 98.3242 112.386 96.5313 112.386C97.3777 111.247 98.1223 110.24 98.8732 109.238C99.9254 107.833 100.998 106.444 102.017 105.015C102.148 104.832 102.125 104.362 101.979 104.184C100.404 102.266 98.7885 100.382 97.194 98.481C97.0408 98.2983 96.9549 98.059 96.7722 97.7267C98.0136 97.7267 99.1335 97.7267 100.339 97.7267Z" fill="#223364"/>
<path d="M123.211 48.3398C125.494 50.3145 127.785 52.2706 130.069 54.2444C130.939 54.9959 131.811 55.7438 132.682 56.4939C133.153 56.8993 133.101 57.3487 132.532 57.5606C128.878 58.9221 125.215 60.2576 121.571 61.6449C121.007 61.8595 120.749 61.7002 120.42 61.2838C119.051 59.554 117.649 57.8499 116.261 56.1352C116.027 55.8465 115.8 55.5521 115.617 55.2041C116.551 55.1445 117.189 54.7871 117.633 53.978C117.819 53.6386 118.222 53.3408 118.594 53.1966C119.41 52.8797 119.89 52.3391 120.238 51.5436C120.44 51.0828 120.921 50.7419 121.285 50.355C121.926 49.6737 122.566 49.0176 123.211 48.3398Z" fill="#E9570D"/>
<path d="M89.4415 72.1608C89.4415 72.1608 89.3967 71.2047 90.1229 71.153C90.2273 71.1456 90.6156 70.9752 90.6729 70.8526C91.4894 69.1046 93.2597 68.2696 94.4587 66.8879C95.3062 65.9112 96.1554 64.9319 97.0651 64.0144C97.7527 63.3208 98.507 62.6041 99.3018 62.039C99.8352 61.6598 100.162 62.1759 100.174 62.6499C100.2 63.6044 100.174 64.4822 100.174 65.5293C100.226 68.4264 100.263 71.3297 100.262 74.2549C96.8174 73.6458 92.9533 72.8634 89.4415 72.1608Z" fill="url(#paint2_linear_4270_3427)"/>
<path d="M123.211 48.3398C122.591 49.0711 121.926 49.6737 121.285 50.355C120.921 50.7419 120.44 51.0828 120.238 51.5436C119.89 52.3391 119.41 52.8797 118.594 53.1966C118.222 53.3408 117.819 53.6386 117.633 53.978C117.189 54.7871 116.752 55.4897 115.794 55.4948C115.041 54.6644 113.768 52.946 113.089 52.0046C113.473 51.4403 114.234 51.5175 114.628 51.0737C115.024 50.6275 115.443 50.2019 115.851 49.7658C116.518 49.0513 117.148 48.2967 117.861 47.6317C118.542 46.9976 119.31 46.4577 120.035 45.871C120.07 45.8426 120.057 45.7783 120.07 45.7222C120.608 46.1272 121.164 46.5017 121.688 46.9254C122.196 47.3372 122.694 47.8555 123.211 48.3398Z" fill="url(#paint3_linear_4270_3427)"/>
<path d="M120.07 45.7222C120.082 45.8308 120.07 45.8426 120.035 45.871C119.31 46.4577 118.542 46.9976 117.861 47.6317C117.148 48.2967 116.518 49.0514 115.851 49.7658C115.443 50.2019 115.024 50.6275 114.628 51.0737C114.234 51.5175 113.863 51.9813 113.455 52.4916C112.512 51.4169 111.531 50.1605 110.646 48.9506C111.808 48.5455 112.065 47.4383 112.884 46.7915C113.643 46.1926 114.311 45.4717 114.981 44.7686C115.6 44.119 116.163 43.3445 116.754 42.6682C117.843 43.6202 118.956 44.7176 120.07 45.7222Z" fill="url(#paint4_linear_4270_3427)"/>
<path d="M116.736 42.6911C116.169 43.4216 115.6 44.119 114.981 44.7686C114.311 45.4717 113.643 46.1926 112.884 46.7915C112.065 47.4383 111.871 48.6718 110.684 49.0218C109.8 48.0621 108.963 47.0867 108.161 46.0818C108.067 45.9633 108.093 45.5989 108.203 45.4906C109.916 43.8024 111.639 42.1237 113.406 40.4924C113.555 40.355 114.11 40.4677 114.34 40.6427C115.162 41.2657 115.926 41.9659 116.736 42.6911Z" fill="url(#paint5_linear_4270_3427)"/>
<path d="M123.042 123.555C124.694 123.555 126.26 123.555 127.874 123.555C127.874 126.166 127.874 128.738 127.874 131.359C127.29 131.359 126.696 131.359 126.031 131.359C126.031 129.379 126.031 127.387 126.031 125.348C125.079 125.348 124.193 125.348 123.238 125.348C123.238 127.33 123.238 129.321 123.238 131.359C122.576 131.359 121.982 131.359 121.339 131.359C121.339 128.795 121.339 126.223 121.339 123.555C121.871 123.555 122.413 123.555 123.042 123.555Z" fill="#223364"/>
<path d="M86.3874 53.1389C85.3356 52.2905 84.5683 51.1463 83.5847 50.2516C82.186 48.9793 80.7133 47.7641 79.3194 46.4202C80.2617 45.5459 81.8032 44.2225 82.8098 43.4535C83.0291 43.83 82.6293 44.6511 82.8746 44.8982C83.2278 45.2539 83.722 45.4656 84.098 45.8034C84.8419 46.4715 85.3175 47.4767 86.4725 47.6182C86.583 47.6318 86.7246 47.7888 86.7657 47.9087C87.141 49.0036 88.3283 49.1825 89.1798 49.7359C88.4032 50.707 87.2159 52.1396 86.3874 53.1389Z" fill="url(#paint6_linear_4270_3427)"/>
<path d="M113.291 131.407C113.11 131.184 112.93 130.963 112.927 130.739C112.904 128.967 112.915 127.194 112.915 125.36C112.015 125.36 111.129 125.36 110.122 125.36C110.122 126.317 110.122 127.322 110.122 128.326C110.122 129.313 110.122 130.301 110.122 131.348C109.568 131.348 109.032 131.348 108.435 131.348C108.435 128.819 108.435 126.246 108.435 123.614C110.502 123.614 112.609 123.614 114.775 123.614C114.775 126.146 114.775 128.718 114.775 131.408C114.336 131.408 113.855 131.408 113.291 131.407Z" fill="#223364"/>
<path d="M83.9441 129.485C83.9441 127.54 83.9441 125.682 83.9441 123.766C85.4384 123.418 86.9268 123.381 88.3596 123.781C89.5702 124.119 90.1826 124.945 90.0274 126.486C89.892 127.829 89.2303 128.498 87.8161 128.781C87.2053 128.902 86.5746 128.925 85.888 129C85.888 129.766 85.888 130.539 85.888 131.359C85.2306 131.359 84.6363 131.359 83.9441 131.359C83.9441 130.772 83.9441 130.172 83.9441 129.485ZM86.9178 127.219C87.6845 127.097 88.099 126.686 87.9504 125.878C87.8425 125.291 87.099 125.055 85.9251 125.199C85.9251 125.871 85.9251 126.54 85.9251 127.219C86.2451 127.219 86.5041 127.219 86.9178 127.219Z" fill="#223364"/>
<path d="M98.2065 129.19C97.2245 127.33 96.2835 125.522 95.26 123.555C96.0612 123.555 96.6409 123.5 97.1993 123.584C97.4124 123.616 97.6383 123.94 97.7532 124.181C98.2458 125.215 98.6992 126.267 99.2198 127.431C99.5593 126.495 100.03 125.674 100.127 124.812C100.252 123.698 100.75 123.397 101.744 123.55C101.94 123.58 102.145 123.555 102.559 123.555C102.324 124.229 102.145 124.821 101.915 125.393C101.351 126.791 100.826 128.209 100.169 129.563C99.2934 131.371 98.0623 132.085 95.6336 131.304C95.6936 131.003 95.7422 130.697 95.8171 130.398C95.9265 129.962 96.1232 129.687 96.6543 129.897C97.3755 130.182 97.9202 129.957 98.2065 129.19Z" fill="#223364"/>
<path d="M89.0672 49.8873C88.1634 49.362 87.141 49.0036 86.7657 47.9087C86.7246 47.7888 86.583 47.6318 86.4725 47.6182C85.3175 47.4767 84.8419 46.4715 84.098 45.8034C83.722 45.4656 83.2278 45.2538 82.8746 44.8982C82.6293 44.6511 82.451 44.291 82.2862 43.8898C82.8884 43.2567 83.9309 42.3538 84.6422 41.7956C85.5085 42.4849 85.9047 43.4866 86.6738 44.162C87.1424 44.5736 87.693 44.9047 88.1085 45.3614C88.9223 46.2559 89.998 46.8265 91.1867 47.2055C90.5783 48.0005 89.7279 49.0642 89.0672 49.8873Z" fill="url(#paint7_linear_4270_3427)"/>
<path d="M90.9984 47.4499C89.7559 47.0952 88.9223 46.2559 88.1085 45.3614C87.693 44.9048 87.1424 44.5736 86.6738 44.162C85.9047 43.4866 85.0184 42.8566 84.2059 42.1447C84.7366 41.6267 85.469 41.085 86.0337 40.5714C86.4435 40.1986 86.7628 40.2444 87.1386 40.6249C88.7437 42.2496 90.3547 43.8687 91.9883 45.4645C92.3314 45.7997 92.2202 46.0315 91.9852 46.3124C91.6746 46.6837 91.3633 47.0545 90.9984 47.4499Z" fill="#EF8405"/>
<path d="M72.4258 125.999C72.4267 125.214 72.4269 124.516 72.43 123.819C72.4302 123.764 72.4506 123.71 72.4718 123.605C74.2197 123.605 75.9772 123.605 77.7856 123.605C77.7856 124.126 77.7856 124.663 77.7856 125.269C76.6833 125.269 75.5641 125.269 74.3761 125.269C74.3761 127.327 74.3761 129.317 74.3761 131.357C73.715 131.357 73.1205 131.357 72.4258 131.357C72.4258 129.61 72.4258 127.848 72.4258 125.999Z" fill="#223364"/>
<path d="M154.232 91.4444C156.162 92.0434 156.883 93.8208 155.785 95.0914C155.025 95.9696 154.049 96.1705 152.999 95.6641C151.997 95.181 151.557 94.1657 151.843 92.9987C152.069 92.0716 152.961 91.4732 154.232 91.4444Z" fill="#223364"/>
</g>
<defs>
<linearGradient id="paint0_linear_4270_3427" x1="93.281" y1="48.3398" x2="98.6034" y2="60.1196" gradientUnits="userSpaceOnUse">
<stop stop-color="#EA570D"/>
<stop offset="1" stop-color="#EB640B"/>
</linearGradient>
<linearGradient id="paint1_linear_4270_3427" x1="90.0523" y1="62.4753" x2="92.67" y2="65.2676" gradientUnits="userSpaceOnUse">
<stop stop-color="#EB610C"/>
<stop offset="1" stop-color="#F08104"/>
</linearGradient>
<linearGradient id="paint2_linear_4270_3427" x1="91.1867" y1="63.8714" x2="100.174" y2="74.168" gradientUnits="userSpaceOnUse">
<stop stop-color="#F07E04"/>
<stop offset="1" stop-color="#F28802"/>
</linearGradient>
<linearGradient id="paint3_linear_4270_3427" x1="111.78" y1="45.8967" x2="120.419" y2="52.354" gradientUnits="userSpaceOnUse">
<stop stop-color="#ED6E09"/>
<stop offset="1" stop-color="#E9570D"/>
</linearGradient>
<linearGradient id="paint4_linear_4270_3427" x1="113.264" y1="45.8094" x2="116.841" y2="49.5616" gradientUnits="userSpaceOnUse">
<stop stop-color="#EE7807"/>
<stop offset="1" stop-color="#EB610B"/>
</linearGradient>
<linearGradient id="paint5_linear_4270_3427" x1="111.431" y1="42.93" x2="115.532" y2="47.4675" gradientUnits="userSpaceOnUse">
<stop stop-color="#EF8405"/>
<stop offset="1" stop-color="#ED6D08"/>
</linearGradient>
<linearGradient id="paint6_linear_4270_3427" x1="85.6021" y1="46.9437" x2="82.923" y2="49.9671" gradientUnits="userSpaceOnUse">
<stop stop-color="#EE7506"/>
<stop offset="1" stop-color="#E9570D"/>
</linearGradient>
<linearGradient id="paint7_linear_4270_3427" x1="87.3473" y1="44.5006" x2="83.5953" y2="48.34" gradientUnits="userSpaceOnUse">
<stop stop-color="#EF8405"/>
<stop offset="1" stop-color="#EC6B09"/>
</linearGradient>
<clipPath id="clip0_4270_3427">
<rect width="200" height="152" fill="white"/>
</clipPath>
</defs>
</svg>
