<svg width="24" height="24" viewBox="0 0 24 24" fill="none" xmlns="http://www.w3.org/2000/svg">
<path d="M21.7501 12C21.7501 12.414 21.4141 12.75 21.0001 12.75H4.81115L10.5311 18.47C10.8241 18.763 10.8241 19.238 10.5311 19.531C10.3851 19.677 10.1931 19.751 10.0011 19.751C9.80909 19.751 9.61706 19.678 9.47106 19.531L2.47106 12.531C2.40206 12.462 2.3472 12.3791 2.3092 12.2871C2.2332 12.1041 2.2332 11.8971 2.3092 11.7141C2.3472 11.6221 2.40206 11.539 2.47106 11.47L9.47106 4.46999C9.76406 4.17699 10.2391 4.17699 10.5321 4.46999C10.8251 4.76299 10.8251 5.23803 10.5321 5.53103L4.81213 11.251H21.0001C21.4141 11.25 21.7501 11.586 21.7501 12Z" fill="black"/>
</svg>
