<svg width="26" height="24" viewBox="0 0 26 24" fill="none" xmlns="http://www.w3.org/2000/svg">
<path d="M13.3385 2C7.50963 2 2.78467 6.477 2.78467 12C2.78467 17.523 7.50963 22 13.3385 22C19.1674 22 23.8924 17.523 23.8924 12C23.8924 6.477 19.1674 2 13.3385 2ZM17.0641 11.53L13.8979 14.53C13.7438 14.676 13.5411 14.75 13.3385 14.75C13.1359 14.75 12.9332 14.677 12.7791 14.53L9.61298 11.53C9.30375 11.237 9.30375 10.762 9.61298 10.469C9.9222 10.176 10.4235 10.176 10.7328 10.469L13.3395 12.939L15.9463 10.469C16.2555 10.176 16.7569 10.176 17.0661 10.469C17.3753 10.762 17.3733 11.237 17.0641 11.53Z" fill="#CAD0D7"/>
</svg>
