<svg width="22" height="22" viewBox="0 0 22 22" fill="none" xmlns="http://www.w3.org/2000/svg">
<path d="M11.0002 1.83334C5.94016 1.83334 1.8335 5.94001 1.8335 11C1.8335 16.06 5.94016 20.1667 11.0002 20.1667C16.0602 20.1667 20.1668 16.06 20.1668 11C20.1668 5.94001 16.0602 1.83334 11.0002 1.83334ZM14.6943 9.35002L10.4135 13.6217C10.2851 13.7592 10.111 13.8234 9.92765 13.8234C9.75348 13.8234 9.57932 13.7592 9.44182 13.6217L7.306 11.4859C7.04016 11.22 7.04016 10.78 7.306 10.5141C7.57183 10.2483 8.01183 10.2483 8.27766 10.5141L9.92765 12.1642L13.7227 8.37836C13.9885 8.10336 14.4285 8.10336 14.6943 8.37836C14.9602 8.64419 14.9602 9.07502 14.6943 9.35002Z" fill="#CAD0D7"/>
</svg>
