<svg width="21" height="20" viewBox="0 0 21 20" fill="none" xmlns="http://www.w3.org/2000/svg">
<path fill-rule="evenodd" clip-rule="evenodd" d="M15.875 17.4999H13.2084C13.07 17.4999 12.9583 17.3882 12.9583 17.2499V13.7499C12.9583 12.5991 12.0258 11.6666 10.875 11.6666C9.72417 11.6666 8.79167 12.5991 8.79167 13.7499V17.2499C8.79167 17.3882 8.67996 17.4999 8.54163 17.4999H5.875C4.20833 17.4999 3.375 16.6666 3.375 14.9999V9.70906C3.375 8.04406 3.81088 7.78828 4.56671 7.15495L9.5367 2.98736C10.3109 2.3382 11.44 2.3382 12.2142 2.98736L17.1842 7.15495C17.9392 7.78828 18.3758 8.04406 18.3758 9.70906V14.9999C18.375 16.6666 17.5417 17.4999 15.875 17.4999Z" fill="#9298A3"/>
</svg>
