<svg width="19" height="18" viewBox="0 0 19 18" fill="none" xmlns="http://www.w3.org/2000/svg">
<path d="M9.64468 1.5C5.40351 1.5 1.96558 4.85775 1.96558 9C1.96558 13.1423 5.40351 16.5 9.64468 16.5C13.8859 16.5 17.3238 13.1423 17.3238 9C17.3238 4.85775 13.8859 1.5 9.64468 1.5ZM12.6756 6.57532L9.8121 12.5189C9.65007 12.8549 9.14785 12.8161 9.04264 12.4583L8.62414 11.0272C8.47824 10.5284 8.07968 10.1393 7.56902 9.99683L6.10383 9.58795C5.73754 9.48595 5.69684 8.99474 6.04163 8.83649L12.1273 6.03973C12.4767 5.87923 12.84 6.23407 12.6756 6.57532Z" fill="#CAD0D7"/>
</svg>
