<svg width="25" height="24" viewBox="0 0 25 24" fill="none" xmlns="http://www.w3.org/2000/svg">
<path d="M12.6686 2.5C7.86969 2.5 3.96564 6.313 3.96564 11C3.96564 15.983 8.70518 19.041 11.8413 21.064L12.384 21.416C12.47 21.472 12.5693 21.5 12.6676 21.5C12.7659 21.5 12.8652 21.472 12.9512 21.416L13.4939 21.064C16.63 19.041 21.3696 15.983 21.3696 11C21.3716 6.313 17.4676 2.5 12.6686 2.5ZM12.6686 13.5C11.2546 13.5 10.1089 12.381 10.1089 11C10.1089 9.619 11.2546 8.5 12.6686 8.5C14.0826 8.5 15.2283 9.619 15.2283 11C15.2283 12.381 14.0826 13.5 12.6686 13.5Z" fill="#FF9521"/>
</svg>
