<svg width="20" height="24" viewBox="0 0 20 24" fill="none" xmlns="http://www.w3.org/2000/svg">
<circle cx="10" cy="9" r="5" fill="#FF9521"/>
<path fill-rule="evenodd" clip-rule="evenodd" d="M0 9.599C0 4.29761 4.47716 0 10 0C15.5228 0 20 4.29761 20 9.599C20 12.7876 18.4893 15.7467 16.7469 18.112C14.9958 20.4885 12.943 22.3572 11.7086 23.3839C10.7211 24.2054 9.2789 24.2054 8.2914 23.3839C7.05696 22.3572 5.00415 20.4885 3.25323 18.1118C1.51065 15.7467 0 12.7876 0 9.599ZM13.3015 9.08848C13.3015 10.839 11.8232 12.258 9.99957 12.258C8.17596 12.258 6.69763 10.839 6.69763 9.08848C6.69763 7.33799 8.17596 5.91894 9.99957 5.91894C11.8232 5.91894 13.3015 7.33799 13.3015 9.08848Z" fill="#FFD9AE"/>
</svg>
