<svg width="25" height="24" viewBox="0 0 25 24" fill="none" xmlns="http://www.w3.org/2000/svg">
<path d="M21.5 11.25H19.46C19.461 11.255 19.46 11.2589 19.461 11.2639C19.118 7.98592 16.515 5.38206 13.237 5.03906C13.241 5.03906 13.246 5.03904 13.25 5.04004V3C13.25 2.59 12.91 2.25 12.5 2.25C12.09 2.25 11.75 2.59 11.75 3V5.04004C11.754 5.04004 11.759 5.04006 11.763 5.03906C8.485 5.38206 5.882 7.98592 5.539 11.2639C5.54 11.2589 5.53898 11.255 5.53998 11.25H3.5C3.09 11.25 2.75 11.59 2.75 12C2.75 12.41 3.09 12.75 3.5 12.75H5.53998C5.53898 12.745 5.54 12.7411 5.539 12.7361C5.882 16.0141 8.486 18.6179 11.763 18.9609C11.759 18.9609 11.754 18.961 11.75 18.96V21C11.75 21.41 12.09 21.75 12.5 21.75C12.91 21.75 13.25 21.41 13.25 21V18.96C13.246 18.96 13.241 18.9599 13.237 18.9609C16.515 18.6179 19.118 16.0141 19.461 12.7361C19.46 12.7411 19.461 12.745 19.46 12.75H21.5C21.91 12.75 22.25 12.41 22.25 12C22.25 11.59 21.91 11.25 21.5 11.25ZM12.5 14.5C11.119 14.5 10 13.381 10 12C10 10.619 11.119 9.5 12.5 9.5C13.881 9.5 15 10.619 15 12C15 13.381 13.881 14.5 12.5 14.5Z" fill="#FF9521"/>
</svg>
