<svg width="24" height="25" viewBox="0 0 24 25" fill="none" xmlns="http://www.w3.org/2000/svg">
<path d="M12 2.5C6.477 2.5 2 6.977 2 12.5C2 18.023 6.477 22.5 12 22.5C17.523 22.5 22 18.023 22 12.5C22 6.977 17.523 2.5 12 2.5ZM15.947 9.26709L12.218 17.1919C12.007 17.6399 11.353 17.5881 11.216 17.1111L10.671 15.2029C10.481 14.5379 9.962 14.0191 9.297 13.8291L7.38898 13.2839C6.91198 13.1479 6.85898 12.493 7.30798 12.282L15.233 8.55298C15.688 8.33898 16.161 8.81209 15.947 9.26709Z" fill="#FF9521"/>
</svg>
