<svg width="25" height="25" viewBox="0 0 25 25" fill="none" xmlns="http://www.w3.org/2000/svg">
<path d="M17.15 8.80396V7.5C17.15 4.881 14.9681 2.75 12.2866 2.75C9.60502 2.75 7.42313 4.881 7.42313 7.5V8.80396C5.43885 9.06096 4.35149 10.346 4.35149 12.5V18.5C4.35149 20.918 5.7153 22.25 8.19104 22.25H16.3821C18.8578 22.25 20.2216 20.918 20.2216 18.5V12.5C20.2216 10.347 19.1343 9.06195 17.15 8.80396ZM12.2866 4.25C14.1214 4.25 15.6142 5.708 15.6142 7.5V8.75H8.95895V7.5C8.95895 5.708 10.4518 4.25 12.2866 4.25ZM18.6858 18.5C18.6858 20.077 17.9967 20.75 16.3821 20.75H8.19104C6.57638 20.75 5.88731 20.077 5.88731 18.5V12.5C5.88731 10.923 6.57638 10.25 8.19104 10.25H16.3821C17.9967 10.25 18.6858 10.923 18.6858 12.5V18.5ZM13.5869 14.5C13.5869 14.912 13.3698 15.2601 13.0545 15.4871V17.5C13.0545 17.914 12.7104 18.25 12.2866 18.25C11.8627 18.25 11.5187 17.914 11.5187 17.5V15.4619C11.2238 15.2329 11.022 14.895 11.022 14.5C11.022 13.81 11.5903 13.25 12.2968 13.25H12.3071C13.0135 13.25 13.5869 13.81 13.5869 14.5Z" fill="#FF9521"/>
</svg>
