<svg width="21" height="20" viewBox="0 0 21 20" fill="none" xmlns="http://www.w3.org/2000/svg">
<path d="M4.38665 8.11511L3.69832 8.45915C3.19332 8.71165 2.87415 9.22758 2.87415 9.79175V16.8083C2.87415 17.4333 3.52416 17.8335 4.08249 17.5585L6.61166 16.2859C6.69583 16.2434 6.74914 16.1567 6.74914 16.0625V11.986C6.74914 11.9201 6.72333 11.8585 6.67666 11.8126C5.74249 10.8893 4.95499 9.74004 4.73999 8.3092C4.71499 8.13837 4.53998 8.03845 4.38665 8.11511ZM11.0583 14.1L10.3666 14.5667L9.67499 14.1C9.67499 14.1 8.94165 13.6175 8.39165 13.2325C8.22665 13.1167 7.99998 13.2367 7.99998 13.4384V15.9685C7.99998 16.0727 8.06499 16.166 8.16249 16.2027L12.4125 17.7983C12.5758 17.8592 12.75 17.7383 12.75 17.5642V13.4242C12.75 13.2225 12.5242 13.1035 12.3592 13.2177C11.8025 13.6043 11.0583 14.1 11.0583 14.1ZM16.6666 7.22502L16.2075 7.4543C16.0633 7.51514 16.0642 7.66849 16.0608 7.74015C15.9858 9.43099 15.12 10.7584 14.0717 11.8043C14.0258 11.8501 13.9992 11.9118 13.9992 11.9776V17.4451C13.9992 17.631 14.195 17.7517 14.3616 17.6683L17.0492 16.3176C17.5575 16.0593 17.8741 15.5425 17.8741 14.9759V7.96761C17.875 7.22511 17.225 6.95002 16.6666 7.22502ZM10.3666 3.05835C7.91664 3.05835 5.92499 5.04175 5.92499 7.50008C5.92499 10.2751 8.69998 11.9417 10.3666 13.0583C12.0333 11.9417 14.8166 10.2751 14.8166 7.50008C14.8166 5.04175 12.825 3.05835 10.3666 3.05835ZM10.3666 8.89168C9.59998 8.89168 8.98331 8.26675 8.98331 7.50008C8.98331 6.73341 9.59998 6.10848 10.3666 6.10848C11.1333 6.10848 11.7583 6.73341 11.7583 7.50008C11.7583 8.26675 11.1333 8.89168 10.3666 8.89168Z" fill="#9298A3"/>
</svg>
