<svg width="25" height="26" viewBox="0 0 25 26" fill="none" xmlns="http://www.w3.org/2000/svg">
<path d="M22.4253 21.6897L18.4847 17.7491C19.802 16.1866 20.5991 14.1727 20.5991 11.9742C20.5991 7.02407 16.5723 2.99731 11.6222 2.99731C6.67215 2.99731 2.64539 7.02407 2.64539 11.9742C2.64539 16.9243 6.67215 20.951 11.6222 20.951C13.8208 20.951 15.8347 20.1539 17.3972 18.8366L21.3377 22.7772C21.4875 22.9269 21.6845 23.0029 21.8815 23.0029C22.0785 23.0029 22.2755 22.928 22.4253 22.7772C22.7259 22.4776 22.7259 21.9903 22.4253 21.6897ZM4.18427 11.9742C4.18427 7.87251 7.52059 4.5362 11.6222 4.5362C15.7239 4.5362 19.0602 7.87251 19.0602 11.9742C19.0602 16.0758 15.7239 19.4121 11.6222 19.4121C7.52059 19.4121 4.18427 16.0758 4.18427 11.9742Z" fill="#CAD0D7"/>
</svg>
