<svg width="21" height="20" viewBox="0 0 21 20" fill="none" xmlns="http://www.w3.org/2000/svg">
<path d="M11.4582 6.66675V9.65503L12.8807 11.0776C13.2066 11.4034 13.2066 11.9301 12.8807 12.2559C12.7182 12.4184 12.5049 12.5001 12.2916 12.5001C12.0782 12.5001 11.8649 12.4184 11.7024 12.2559L10.0357 10.5893C9.87903 10.4326 9.79155 10.2209 9.79155 10.0001V6.66675C9.79155 6.20675 10.1641 5.83342 10.6249 5.83342C11.0857 5.83342 11.4582 6.20675 11.4582 6.66675ZM10.6465 1.66675C8.42145 1.66675 6.33239 2.56502 4.79155 4.10836V2.50008C4.79155 2.04008 4.41905 1.66675 3.95822 1.66675C3.49738 1.66675 3.12488 2.04008 3.12488 2.50008V5.83342C3.12488 6.29342 3.49738 6.66675 3.95822 6.66675H7.29155C7.75239 6.66675 8.12489 6.29342 8.12489 5.83342C8.12489 5.37341 7.75239 5.00008 7.29155 5.00008H6.25904C7.45737 3.93925 9.00812 3.33341 10.6465 3.33341C14.3098 3.33341 17.2916 6.32425 17.2916 10.0001C17.2916 13.6759 14.3106 16.6667 10.6465 16.6667C8.10062 16.6667 5.82486 15.2493 4.7057 12.9668C4.50403 12.5535 4.00495 12.3818 3.59079 12.5851C3.17745 12.7876 3.00743 13.2867 3.20993 13.7C4.61076 16.5584 7.46062 18.3334 10.6465 18.3334C15.229 18.3334 18.9582 14.5951 18.9582 10.0001C18.9582 5.40508 15.229 1.66675 10.6465 1.66675Z" fill="#9298A3"/>
</svg>
