<svg width="24" height="25" viewBox="0 0 24 25" fill="none" xmlns="http://www.w3.org/2000/svg">
<path fill-rule="evenodd" clip-rule="evenodd" d="M12 2.5C6.477 2.5 2 6.977 2 12.5C2 18.023 6.477 22.5 12 22.5C17.523 22.5 22 18.023 22 12.5C22 6.977 17.523 2.5 12 2.5ZM15.53 16.03C15.384 16.176 15.192 16.25 15 16.25C14.808 16.25 14.616 16.177 14.47 16.03L11.47 13.03C11.329 12.889 11.25 12.698 11.25 12.5V7.5C11.25 7.086 11.586 6.75 12 6.75C12.414 6.75 12.75 7.086 12.75 7.5V12.189L15.53 14.969C15.823 15.263 15.823 15.737 15.53 16.03Z" fill="#FF9521"/>
</svg>
