<svg width="19" height="18" viewBox="0 0 19 18" fill="none" xmlns="http://www.w3.org/2000/svg">
<path fill-rule="evenodd" clip-rule="evenodd" d="M9.21493 1.5C4.97376 1.5 1.53583 4.85775 1.53583 9C1.53583 13.1423 4.97376 16.5 9.21493 16.5C13.4561 16.5 16.894 13.1423 16.894 9C16.894 4.85775 13.4561 1.5 9.21493 1.5ZM11.9257 11.6475C11.8136 11.757 11.6661 11.8125 11.5187 11.8125C11.3712 11.8125 11.2238 11.7578 11.1116 11.6475L8.80792 9.39752C8.69964 9.29177 8.639 9.1485 8.639 9V5.25C8.639 4.9395 8.89702 4.6875 9.21493 4.6875C9.53285 4.6875 9.79087 4.9395 9.79087 5.25V8.76672L11.9257 10.8517C12.1507 11.0722 12.1507 11.4278 11.9257 11.6475Z" fill="#CAD0D7"/>
</svg>
