<svg width="25" height="24" viewBox="0 0 25 24" fill="none" xmlns="http://www.w3.org/2000/svg">
<path fill-rule="evenodd" clip-rule="evenodd" d="M10.4832 1.62413e-05C10.9782 1.50317e-05 11.3795 0.386841 11.3795 0.864012V5.83197C11.3795 6.30916 10.9782 6.69597 10.4832 6.69597H2.12126C1.71758 6.69597 1.4521 6.33757 1.63787 5.99207C1.66847 5.93517 1.69872 5.87891 1.7274 5.82361C1.96431 5.36683 2.31866 4.74062 2.7916 4.05675C3.72678 2.70449 5.17701 1.05172 7.16971 0.0912379C7.29416 0.0312525 7.43138 2.33267e-05 7.57054 2.29811e-05L10.4832 1.62413e-05ZM13.6201 5.83197C13.6201 6.30916 14.0214 6.69597 14.5164 6.69597H22.6833C23.17 6.69597 23.4902 6.24317 23.2725 5.82359C23.0357 5.36681 22.6814 4.74061 22.2083 4.05672C21.2732 2.70446 19.823 1.0517 17.8303 0.0912137C17.7058 0.0312288 17.5686 0 17.4294 0L14.5164 6.73983e-06C14.0214 7.94943e-06 13.6201 0.386832 13.6201 0.864004V5.83197ZM1.63545 8.85596H12.4998H23.3645C23.8053 8.85596 24.1822 9.16488 24.2394 9.58623C24.7498 13.3444 24.4085 16.8075 24.0815 18.8808C23.8236 20.5177 22.3426 21.6 20.7076 21.6H16.9811C16.4861 21.6 16.0849 21.2131 16.0849 20.736V19.7775C16.0849 19.7274 16.127 19.6868 16.1791 19.6868C17.3789 19.6868 18.4738 19.027 18.9991 17.9871C19.5247 16.9473 19.3888 15.7096 18.6492 14.7988C17.3316 13.1761 16.3647 12.3609 15.0724 11.4066C13.5453 10.2789 11.4545 10.2789 9.92735 11.4066C8.63498 12.3609 7.66816 13.1761 6.3505 14.7988C5.61092 15.7096 5.47507 16.9473 6.00057 17.9871C6.52605 19.027 7.6208 19.6868 8.82065 19.6868C8.87261 19.6868 8.91474 19.7274 8.91474 19.7775V20.736C8.91474 21.2131 8.51346 21.6 8.01847 21.6H4.29229C2.65745 21.6 1.17646 20.5177 0.918405 18.881C0.591518 16.8075 0.250265 13.3444 0.760562 9.58623C0.817772 9.16488 1.19464 8.85596 1.63545 8.85596ZM11.1554 17.5268H8.82065C8.47784 17.5268 8.16505 17.3382 8.01492 17.0411C7.86478 16.744 7.90359 16.3904 8.11489 16.1302C9.28993 14.6831 10.1101 13.9925 11.2899 13.1213C12.0131 12.5873 12.9867 12.5873 13.7098 13.1213C14.8896 13.9925 15.7098 14.6831 16.8848 16.1302C17.0961 16.3904 17.135 16.744 16.9848 17.0411C16.8347 17.3382 16.5219 17.5268 16.1791 17.5268H13.8442V22.704C13.8442 23.4197 13.2423 24 12.4998 24C11.7573 24 11.1554 23.4197 11.1554 22.704V17.5268Z" fill="#CAD0D7"/>
</svg>
