<svg width="21" height="20" viewBox="0 0 21 20" fill="none" xmlns="http://www.w3.org/2000/svg">
<path d="M14.8125 2.5H5.4375C3.5625 2.5 2.625 3.4375 2.625 5.3125V14.6875C2.625 16.5625 3.5625 17.5 5.4375 17.5H14.8125C16.6875 17.5 17.625 16.5625 17.625 14.6875V5.3125C17.625 3.4375 16.6875 2.5 14.8125 2.5ZM10.1317 5.83333C11.5125 5.83333 12.6317 6.9525 12.6317 8.33333C12.6317 9.71417 11.5125 10.8333 10.1317 10.8333C8.75088 10.8333 7.63171 9.71417 7.63171 8.33333C7.63171 6.9525 8.75088 5.83333 10.1317 5.83333ZM14.8083 16.25H5.44167C5.33334 16.25 5.23334 16.25 5.13334 16.2417C5.24167 14.825 6.0417 12.975 8.70003 12.975H11.55C14.2 12.975 15.0083 14.8417 15.1167 16.2417C15.0167 16.25 14.9167 16.25 14.8083 16.25Z" fill="#9298A3"/>
</svg>
